<svg width="152" height="159" viewBox="0 0 152 159" fill="none" xmlns="http://www.w3.org/2000/svg">
<path fill-rule="evenodd" clip-rule="evenodd" d="M81.6366 16.1833L132.303 41.5167C136.608 43.6556 139.331 48.0467 139.333 52.8533V113.21C139.331 118.017 136.608 122.408 132.303 124.547L81.6366 149.88C78.0686 151.665 73.8679 151.665 70.2999 149.88L19.6333 124.547C15.3329 122.38 12.6331 117.962 12.6666 113.147V52.8533C12.6691 48.0467 15.3921 43.6556 19.6966 41.5167L70.3633 16.1833C73.9139 14.419 78.0859 14.419 81.6366 16.1833Z" stroke="#805AD5" stroke-width="12.6667" stroke-linecap="round" stroke-linejoin="round"/>
<path d="M14.6934 46.0134L76 76.6667L137.307 46.0134" stroke="#805AD5" stroke-width="12.6667" stroke-linecap="round" stroke-linejoin="round"/>
<path d="M76 151.147V76.6667" stroke="#805AD5" stroke-width="12.6667" stroke-linecap="round" stroke-linejoin="round"/>
<path d="M13 14L76.3333 45.6667" stroke="#B794F4" stroke-width="12.6667" stroke-linecap="round" stroke-linejoin="round"/>
<circle cx="36" cy="86" r="9" fill="#81E6D9"/>
<circle cx="59" cy="86" r="9" fill="#FBD38D"/>
<circle cx="45" cy="109" r="9" fill="#9AE6B4"/>
<circle cx="99" cy="91" r="9" fill="#A3BFFA"/>
<circle cx="122" cy="77" r="9" fill="#FEB2B2"/>
<circle cx="99" cy="114" r="9" fill="#90CDF4"/>
<circle cx="117" cy="104" r="9" fill="#A0AEC0"/>
<path d="M132 7L78 46" stroke="#B794F4" stroke-width="12.6667" stroke-linecap="round" stroke-linejoin="round"/>
</svg>
